<svg width="24" height="24" viewBox="0 0 24 24" fill="none" xmlns="http://www.w3.org/2000/svg">
<path d="M6 22C5.45 22 4.97917 21.8042 4.5875 21.4125C4.19583 21.0208 4 20.55 4 20V4C4 3.45 4.19583 2.97917 4.5875 2.5875C4.97917 2.19583 5.45 2 6 2H14L20 8V20C20 20.55 19.8042 21.0208 19.4125 21.4125C19.0208 21.8042 18.55 22 18 22H6ZM13 9V4H6V20H18V9H13Z" fill="black"/>
<path d="M12.5 17.5V11.5H15.5C15.7833 11.5 16.0208 11.5958 16.2125 11.7875C16.4042 11.9792 16.5 12.2167 16.5 12.5V16.5C16.5 16.7833 16.4042 17.0208 16.2125 17.2125C16.0208 17.4042 15.7833 17.5 15.5 17.5H12.5ZM7.5 17.5V16H10V15H8.5V14H10V13H7.5V11.5H10.5C10.7833 11.5 11.0208 11.5958 11.2125 11.7875C11.4042 11.9792 11.5 12.2167 11.5 12.5V16.5C11.5 16.7833 11.4042 17.0208 11.2125 17.2125C11.0208 17.4042 10.7833 17.5 10.5 17.5H7.5ZM14 16H15V13H14V16Z" fill="black"/>
</svg>
