<svg width="24" height="24" viewBox="0 0 24 24" fill="none" xmlns="http://www.w3.org/2000/svg">
<path d="M6 22C5.45 22 4.97917 21.8042 4.5875 21.4125C4.19583 21.0208 4 20.55 4 20V4C4 3.45 4.19583 2.97917 4.5875 2.5875C4.97917 2.19583 5.45 2 6 2H14L20 8V20C20 20.55 19.8042 21.0208 19.4125 21.4125C19.0208 21.8042 18.55 22 18 22H6ZM13 9V4H6V20H18V9H13Z" fill="black"/>
<path d="M9.41572 18.4268V12.2625H7.17825V10.5732H13.3425V12.2625H11.105V18.4268H9.41572ZM13.79 18.4268V14.8468H12.4475V13.1575H16.8217V14.8468H15.4793V18.4268H13.79Z" fill="black"/>
</svg>
