<svg width="24" height="24" viewBox="0 0 24 24" fill="none" xmlns="http://www.w3.org/2000/svg">
<path d="M6 22C5.45 22 4.97917 21.8042 4.5875 21.4125C4.19583 21.0208 4 20.55 4 20V4C4 3.45 4.19583 2.97917 4.5875 2.5875C4.97917 2.19583 5.45 2 6 2H14L20 8V20C20 20.55 19.8042 21.0208 19.4125 21.4125C19.0208 21.8042 18.55 22 18 22H6ZM13 9V4H6V20H18V9H13Z" fill="black"/>
<path d="M9.16667 18.2778L9.63889 16.625H7.75L7.98611 15.4444H9.875L10.3472 13.7917H8.45833L8.69444 12.6111H10.5833L11.0556 10.7222H12.2361L11.7639 12.6111H13.4167L13.8889 10.7222H15.0694L14.5972 12.6111H16.25L16.0139 13.7917H14.3611L13.8889 15.4444H15.5417L15.3056 16.625H13.6528L13.1806 18.2778H12L12.4722 16.625H10.8194L10.3472 18.2778H9.16667ZM11.0556 15.4444H12.7083L13.1806 13.7917H11.5278L11.0556 15.4444Z" fill="black"/>
</svg>
