<svg width="24" height="24" viewBox="0 0 24 24" fill="none" xmlns="http://www.w3.org/2000/svg">
<path d="M6 22C5.45 22 4.97917 21.8042 4.5875 21.4125C4.19583 21.0208 4 20.55 4 20V4C4 3.45 4.19583 2.97917 4.5875 2.5875C4.97917 2.19583 5.45 2 6 2H14L20 8V20C20 20.55 19.8042 21.0208 19.4125 21.4125C19.0208 21.8042 18.55 22 18 22H6ZM13 9V4H6V20H18V9H13Z" fill="black"/>
<path d="M10.0543 17.3849L11.1893 16.2296L9.426 14.4663L11.1893 12.703L10.0543 11.5478L7.13575 14.4663L10.0543 17.3849ZM13.9457 17.3849L16.8643 14.4663L13.9457 11.5478L12.8107 12.703L14.574 14.4663L12.8107 16.2296L13.9457 17.3849Z" fill="black"/>
</svg>
