<svg width="24" height="24" viewBox="0 0 24 24" fill="none" xmlns="http://www.w3.org/2000/svg">
<path d="M19 18.9958L23 14.9903L21.6 13.5883L20 15.1905V11.0097H18V15.1905L16.4 13.5883L15 14.9903L19 18.9958ZM15 22V19.9972H23V22H15Z" fill="black"/>
<path d="M12 6.00278H20C20.55 6.00278 21.0204 6.19928 21.4121 6.59149C21.8038 6.9837 22 7.4548 22 8.00556V9.00695H20V8.00556H11.1748L9.1748 6.00278H4V18.0195H13V20.0223H4C3.45 20.0223 2.97956 19.8258 2.58789 19.4335C2.19622 19.0413 2 18.5702 2 18.0195V6.00278C2 5.45202 2.19622 4.98092 2.58789 4.58871C2.97956 4.1965 3.45 4 4 4H10L12 6.00278Z" fill="black"/>
</svg>
