<svg width="24" height="24" viewBox="0 0 24 24" fill="none" xmlns="http://www.w3.org/2000/svg">
<path d="M12 6H20C20.55 6 21.0204 6.19622 21.4121 6.58789C21.8038 6.97956 22 7.45 22 8V11H20V8H11.1748L9.1748 6H4V18H13.5625C13.5214 18.2443 13.5 18.4947 13.5 18.75C13.5 19.1826 13.5588 19.6017 13.6768 20H4C3.45 20 2.97956 19.8038 2.58789 19.4121C2.19622 19.0204 2 18.55 2 18V6C2 5.45 2.19622 4.97956 2.58789 4.58789C2.97956 4.19622 3.45 4 4 4H10L12 6Z" fill="black"/>
<path d="M17.75 21.0039C18.3833 21.0039 18.9167 20.7872 19.35 20.3539C19.7833 19.9206 20 19.3872 20 18.7539V15.0039H23V13.0039H19V16.8789C18.8167 16.7456 18.6208 16.6497 18.4125 16.5914C18.2042 16.5331 17.9833 16.5039 17.75 16.5039C17.1167 16.5039 16.5833 16.7206 16.15 17.1539C15.7167 17.5872 15.5 18.1206 15.5 18.7539C15.5 19.3872 15.7167 19.9206 16.15 20.3539C16.5833 20.7872 17.1167 21.0039 17.75 21.0039Z" fill="black"/>
</svg>
