<svg width="24" height="24" viewBox="0 0 24 24" fill="none" xmlns="http://www.w3.org/2000/svg">
<path d="M15 16H20V14H15V16ZM14.5 18C14.0833 18 13.7292 17.8542 13.4375 17.5625C13.1458 17.2708 13 16.9167 13 16.5V13.5C13 13.0833 13.1458 12.7292 13.4375 12.4375C13.7292 12.1458 14.0833 12 14.5 12H20.5C20.9167 12 21.2708 12.1458 21.5625 12.4375C21.8542 12.7292 22 13.0833 22 13.5V16.5C22 16.9167 21.8542 17.2708 21.5625 17.5625C21.2708 17.8542 20.9167 18 20.5 18H14.5ZM12 21V19H23V21H12Z" fill="black"/>
<path d="M12 6H20C20.55 6 21.0204 6.19622 21.4121 6.58789C21.8038 6.97956 22 7.45 22 8V10.3311C21.5385 10.1124 21.0314 10 20.5 10H20V8H11.1748L9.1748 6H4V18H10V20H4C3.45 20 2.97956 19.8038 2.58789 19.4121C2.19622 19.0204 2 18.55 2 18V6C2 5.45 2.19622 4.97956 2.58789 4.58789C2.97956 4.19622 3.45 4 4 4H10L12 6Z" fill="black"/>
</svg>
