<svg width="24" height="24" viewBox="0 0 24 24" fill="none" xmlns="http://www.w3.org/2000/svg">
<path d="M16.25 18.75H20.75L19.2688 16.8188L18.1812 18.1125L17.45 17.1375L16.25 18.75ZM15.5 21C15.0875 21 14.7344 20.8531 14.4406 20.5594C14.1469 20.2656 14 19.9125 14 19.5V13.5C14 13.0875 14.1469 12.7344 14.4406 12.4406C14.7344 12.1469 15.0875 12 15.5 12H21.5C21.9125 12 22.2656 12.1469 22.5594 12.4406C22.8531 12.7344 23 13.0875 23 13.5V19.5C23 19.9125 22.8531 20.2656 22.5594 20.5594C22.2656 20.8531 21.9125 21 21.5 21H15.5ZM15.5 19.5H21.5V13.5H15.5V19.5Z" fill="black"/>
<path d="M12 6H20C20.55 6 21.0204 6.19622 21.4121 6.58789C21.8038 6.97956 22 7.45 22 8V10H20V8H11.1748L9.1748 6H4V18H12V20H4C3.45 20 2.97956 19.8038 2.58789 19.4121C2.19622 19.0204 2 18.55 2 18V6C2 5.45 2.19622 4.97956 2.58789 4.58789C2.97956 4.19622 3.45 4 4 4H10L12 6Z" fill="black"/>
</svg>
