<svg width="24" height="24" viewBox="0 0 24 24" fill="none" xmlns="http://www.w3.org/2000/svg">
<path d="M16 21H20C20.2833 21 20.5208 20.9042 20.7125 20.7125C20.9042 20.5208 21 20.2833 21 20V19L23 20.05V15.95L21 17V16C21 15.7167 20.9042 15.4792 20.7125 15.2875C20.5208 15.0958 20.2833 15 20 15H16C15.7167 15 15.4792 15.0958 15.2875 15.2875C15.0958 15.4792 15 15.7167 15 16V20C15 20.2833 15.0958 20.5208 15.2875 20.7125C15.4792 20.9042 15.7167 21 16 21Z" fill="black"/>
<path d="M12 6H20C20.55 6 21.0204 6.19622 21.4121 6.58789C21.8038 6.97956 22 7.45 22 8V13.7539C21.4345 13.249 20.7314 13 20 13V8H11.1748L9.1748 6H4V18H13V20H4C3.45 20 2.97956 19.8038 2.58789 19.4121C2.19622 19.0204 2 18.55 2 18V6C2 5.45 2.19622 4.97956 2.58789 4.58789C2.97956 4.19622 3.45 4 4 4H10L12 6Z" fill="black"/>
</svg>
