<svg width="24" height="24" viewBox="0 0 24 24" fill="none" xmlns="http://www.w3.org/2000/svg">
<path d="M12 6H20C20.55 6 21.0204 6.19622 21.4121 6.58789C21.8038 6.97956 22 7.45 22 8V11.7793C21.4042 11.36 20.7278 11.1064 20 11.0273V8H11.1748L9.1748 6H4V18H14V20H4C3.45 20 2.97956 19.8038 2.58789 19.4121C2.19622 19.0204 2 18.55 2 18V6C2 5.45 2.19622 4.97956 2.58789 4.58789C2.97956 4.19622 3.45 4 4 4H10L12 6Z" fill="black"/>
<path d="M16.9917 22C16.7194 22 16.4861 21.9062 16.2917 21.7188C16.0972 21.5312 16 21.3062 16 21.0437V17.3313C16 17.0688 16.0972 16.8438 16.2917 16.6562C16.4861 16.4688 16.7194 16.375 16.9917 16.375H17.1667V15.25C17.1667 14.6313 17.3951 14.1016 17.8521 13.6609C18.309 13.2203 18.8583 13 19.5 13C20.1417 13 20.691 13.2203 21.1479 13.6609C21.6049 14.1016 21.8333 14.6313 21.8333 15.25V16.375H22.0083C22.2806 16.375 22.5139 16.4688 22.7083 16.6562C22.9028 16.8438 23 17.0688 23 17.3313V21.0437C23 21.3062 22.9028 21.5312 22.7083 21.7188C22.5139 21.9062 22.2806 22 22.0083 22H16.9917ZM18.3333 16.375H20.6667V15.25C20.6667 14.9312 20.5549 14.6641 20.3312 14.4484C20.1076 14.2328 19.8306 14.125 19.5 14.125C19.1694 14.125 18.8924 14.2328 18.6688 14.4484C18.4451 14.6641 18.3333 14.9312 18.3333 15.25V16.375Z" fill="black"/>
</svg>
