<svg width="24" height="24" viewBox="0 0 24 24" fill="none" xmlns="http://www.w3.org/2000/svg">
<path d="M4 22C3.45 22 2.97917 21.8042 2.5875 21.4125C2.19583 21.0208 2 20.55 2 20V4C2 3.45 2.19583 2.97917 2.5875 2.5875C2.97917 2.19583 3.45 2 4 2H20C20.55 2 21.0208 2.19583 21.4125 2.5875C21.8042 2.97917 22 3.45 22 4V20C22 20.55 21.8042 21.0208 21.4125 21.4125C21.0208 21.8042 20.55 22 20 22H4ZM4 20H20V4H4V20Z" fill="black"/>
<path d="M13.3 17.453V15.4565H14.4123C14.6506 15.4565 14.8543 15.3696 15.0231 15.1958C15.192 15.022 15.2764 14.8159 15.2764 14.5775V13.9368C15.2764 13.5197 15.3956 13.1422 15.634 12.8045C15.8723 12.4668 16.1852 12.2235 16.5726 12.0745V11.8808C16.1753 11.7616 15.8599 11.5332 15.6265 11.1955C15.3931 10.8578 15.2764 10.4803 15.2764 10.0631V9.4076C15.2764 9.16922 15.192 8.9656 15.0231 8.79675C14.8543 8.62789 14.6506 8.54347 14.4123 8.54347H13.3V6.54703H15.0231C15.6489 6.54703 16.1803 6.76803 16.6173 7.21002C17.0543 7.65202 17.2728 8.19086 17.2728 8.82655V9.46719C17.2728 9.70558 17.3573 9.91168 17.5261 10.0855C17.695 10.2593 17.8986 10.3462 18.137 10.3462H18.4647V13.6538H18.137C17.8986 13.6538 17.695 13.7382 17.5261 13.907C17.3573 14.0759 17.2728 14.2795 17.2728 14.5179V15.1734C17.2728 15.8091 17.0543 16.348 16.6173 16.79C16.1803 17.232 15.6489 17.453 15.0231 17.453H13.3ZM8.97687 17.453C8.35112 17.453 7.81973 17.232 7.3827 16.79C6.94567 16.348 6.72715 15.8091 6.72715 15.1734V14.5179C6.72715 14.2795 6.64273 14.0759 6.47387 13.907C6.30502 13.7382 6.09644 13.6538 5.84812 13.6538H5.53525V10.3462H5.84812C6.09644 10.3462 6.30502 10.2593 6.47387 10.0855C6.64273 9.91168 6.72715 9.70558 6.72715 9.46719V8.82655C6.72715 8.19086 6.94567 7.65202 7.3827 7.21002C7.81973 6.76803 8.35112 6.54703 8.97687 6.54703H10.7V8.54347H9.60262C9.36424 8.54347 9.15814 8.62789 8.98432 8.79675C8.8105 8.9656 8.72359 9.16922 8.72359 9.4076V10.0631C8.72359 10.4803 8.60689 10.8578 8.37347 11.1955C8.14006 11.5332 7.82966 11.7616 7.4423 11.8808V12.0745C7.82966 12.2235 8.14006 12.4668 8.37347 12.8045C8.60689 13.1422 8.72359 13.5197 8.72359 13.9368V14.5775C8.72359 14.8159 8.8105 15.022 8.98432 15.1958C9.15814 15.3696 9.36424 15.4565 9.60262 15.4565H10.7V17.453H8.97687Z" fill="black"/>
</svg>
