<svg width="24" height="24" viewBox="0 0 24 24" fill="none" xmlns="http://www.w3.org/2000/svg">
<path d="M4 20C3.45 20 2.97917 19.8042 2.5875 19.4125C2.19583 19.0208 2 18.55 2 18V6C2 5.45 2.19583 4.97917 2.5875 4.5875C2.97917 4.19583 3.45 4 4 4H20C20.55 4 21.0208 4.19583 21.4125 4.5875C21.8042 4.97917 22 5.45 22 6V18C22 18.55 21.8042 19.0208 21.4125 19.4125C21.0208 19.8042 20.55 20 20 20H4ZM4 18H20V6H4V18Z" fill="black"/>
<path d="M12.6582 16.5V12.7938H10.5V16.5H12.6582ZM15.5734 16.5V8.5H13.4266V16.5H15.5734ZM18.5 16.5V10.7599H16.3418V16.5H18.5Z" fill="black"/>
<path d="M5.5 13.5V7.5L10.15 10.5L5.5 13.5Z" fill="black"/>
</svg>
