<svg width="24" height="24" viewBox="0 0 24 24" fill="none" xmlns="http://www.w3.org/2000/svg">
<path d="M3.77778 19.9951C3.28889 19.9951 2.87037 19.821 2.52222 19.473C2.17407 19.125 2 18.7066 2 18.2178V9.776H6V19.9951H3.77778ZM2 7.99877V5.77723C2 5.28849 2.17407 4.8701 2.52222 4.52206C2.87037 4.17402 3.28889 4 3.77778 4H6V7.99877H2Z" fill="black"/>
<path d="M21.7662 19.7682C21.6117 19.9227 21.4258 20 21.2088 20H20.2222V15.4631H21.9981V19.211C21.9981 19.428 21.9208 19.6137 21.7662 19.7682Z" fill="black"/>
<path d="M7.77778 9.776H22V11.5532H7.77778V9.776Z" fill="black"/>
<path d="M7.77778 13.9525H20.4889V15.7297H7.77778V13.9525Z" fill="black"/>
<path d="M7.77778 18.2178H20.2222V19.9951H7.77778V18.2178Z" fill="black"/>
<path d="M7.77778 11.5532H9.55555V18.2178H7.77778V11.5532Z" fill="black"/>
<path d="M14 11.5532H15.7778V18.2178H14V11.5532Z" fill="black"/>
<path d="M20.2222 11.5532H22V15.4631H20.2222V11.5532Z" fill="black"/>
<path d="M11.7938 4V7.99877H22V5.77723C22 5.28849 21.8262 4.8701 21.4786 4.52206C21.131 4.17402 20.7131 4 20.225 4H11.7938Z" fill="black"/>
<path d="M7.8 4H11.7938V8H7.8V4Z" fill="black"/>
</svg>
