<svg width="24" height="24" viewBox="0 0 24 24" fill="none" xmlns="http://www.w3.org/2000/svg">
<path fill-rule="evenodd" clip-rule="evenodd" d="M22 15.4629H21.998V19.2109C21.998 19.4279 21.9211 19.614 21.7666 19.7686C21.6121 19.923 21.426 20 21.209 20H20.2227V19.9951H7.77734V9.77637H22V15.4629ZM9.55566 18.2178H14V15.7295H9.55566V18.2178ZM15.7773 13.9521H20.2197V15.7295H15.7773V18.2178H20.2227V11.5537H15.7773V13.9521ZM9.55566 13.9521H14V11.5537H9.55566V13.9521Z" fill="black"/>
<path d="M6 19.9951H3.77734C3.28864 19.995 2.87051 19.8206 2.52246 19.4727C2.17435 19.1246 2 18.7065 2 18.2178V9.77637H6V19.9951Z" fill="black"/>
<path d="M6 7.99902H2V5.77734C2 5.28864 2.17437 4.87049 2.52246 4.52246C2.87051 4.17452 3.28864 4.0001 3.77734 4H6V7.99902Z" fill="black"/>
<path d="M20.2246 4C20.7127 4 21.1309 4.17442 21.4785 4.52246C21.826 4.87047 22 5.28868 22 5.77734V7.99902H7.7998V4H20.2246Z" fill="black"/>
</svg>
