<svg width="24" height="24" viewBox="0 0 24 24" fill="none" xmlns="http://www.w3.org/2000/svg">
<path fill-rule="evenodd" clip-rule="evenodd" d="M17.2002 12.2002C18.5833 12.2003 19.7624 12.6873 20.7373 13.6621C21.7123 14.6371 22.2002 15.8169 22.2002 17.2002C22.2001 18.5834 21.7122 19.7624 20.7373 20.7373C19.7624 21.7122 18.5834 22.2001 17.2002 22.2002C15.8169 22.2002 14.6371 21.7123 13.6621 20.7373C12.6873 19.7624 12.2003 18.5833 12.2002 17.2002C12.2002 15.8169 12.6871 14.6371 13.6621 13.6621C14.6371 12.6871 15.8169 12.2002 17.2002 12.2002ZM16.7002 17.3994L18.8496 19.5498L19.5498 18.8496L17.7002 17V14.2002H16.7002V17.3994Z" fill="black"/>
<path d="M20 4C20.5499 4.00003 21.0205 4.19625 21.4121 4.58789C21.8037 4.97953 22 5.45008 22 6V12.1016C21.3946 11.5284 20.7246 11.0831 20 10.7676V8H4V18H10.2432C10.3182 18.7037 10.4942 19.3722 10.7676 20H4C3.45007 20 2.97953 19.8037 2.58789 19.4121C2.19627 19.0205 2.00005 18.5499 2 18V6C2 5.45002 2.19625 4.97955 2.58789 4.58789C2.97956 4.19622 3.45 4 4 4H20Z" fill="black"/>
<path d="M11.5 13L7.5 17L6.09961 15.5996L8.6748 13L6.0752 10.4004L7.5 9L11.5 13Z" fill="black"/>
</svg>
