<svg width="24" height="24" viewBox="0 0 24 24" fill="none" xmlns="http://www.w3.org/2000/svg">
<path fill-rule="evenodd" clip-rule="evenodd" d="M16.7979 11.3838C18.0478 11.3838 19.1104 11.8213 19.9854 12.6963C20.8604 13.5713 21.2979 14.6338 21.2979 15.8838C21.2978 16.3169 21.2396 16.7374 21.123 17.1455C21.0064 17.5537 20.8319 17.9333 20.5986 18.2832L23.2979 20.9834L21.8984 22.3838L19.1982 19.6836C18.8483 19.9169 18.4688 20.0914 18.0605 20.208C17.6523 20.3246 17.2311 20.3838 16.7979 20.3838C15.548 20.3837 14.4852 19.9462 13.6104 19.0713C12.7355 18.1964 12.2979 17.1336 12.2979 15.8838C12.2979 14.634 12.7356 13.5712 13.6104 12.6963C14.4852 11.8214 15.548 11.3839 16.7979 11.3838ZM16.7979 13.3838C16.0981 13.3839 15.5067 13.6252 15.0234 14.1084C14.5401 14.5917 14.2979 15.1838 14.2979 15.8838C14.2979 16.5836 14.5402 17.175 15.0234 17.6582C15.5067 18.1414 16.0981 18.3837 16.7979 18.3838C17.4979 18.3838 18.0899 18.1415 18.5732 17.6582C19.0564 17.175 19.2978 16.5836 19.2979 15.8838C19.2979 15.1838 19.0566 14.5917 18.5732 14.1084C18.0899 13.6251 17.4978 13.3838 16.7979 13.3838Z" fill="black"/>
<path fill-rule="evenodd" clip-rule="evenodd" d="M12.0127 2C13.3875 2.00005 14.6795 2.26316 15.8877 2.78809C17.0958 3.31303 18.1543 4.02936 19.0625 4.9375C19.9708 5.84578 20.6869 6.90503 21.2119 8.11328C21.4759 8.72096 21.6733 9.35011 21.8047 10H9.64941C9.59943 10.3333 9.56211 10.6634 9.53711 10.9883C9.51215 11.313 9.50001 11.6504 9.5 12C9.5 12.2029 9.50429 12.4022 9.5127 12.5967C9.51562 12.6678 9.52142 12.7388 9.52539 12.8096C9.52948 12.8777 9.53196 12.9456 9.53711 13.0127C9.53928 13.0409 9.54256 13.0694 9.54492 13.0977C9.66587 14.6836 10.0438 16.1863 10.6357 17.5508C10.7113 17.7285 10.7913 17.9033 10.875 18.0752C10.9542 18.2377 11.0366 18.3992 11.123 18.5586C11.8034 19.8214 12.6769 20.9372 13.6934 21.8594C13.1475 21.9512 12.5877 22 12.0127 22C10.6378 22 9.34161 21.7378 8.125 21.2129C6.90837 20.6879 5.84581 19.9708 4.9375 19.0625C4.02925 18.1542 3.31207 17.0916 2.78711 15.875C2.26232 14.6586 2.00006 13.3629 2 11.9883C2.00003 10.6136 2.26228 9.32141 2.78711 8.11328C3.3121 6.90503 4.02922 5.84578 4.9375 4.9375C5.84575 4.02934 6.9085 3.31302 8.125 2.78809C9.34163 2.26313 10.6377 2 12.0127 2ZM5.09961 16C5.58292 16.8333 6.18716 17.5591 6.91211 18.1758C7.63701 18.7923 8.46625 19.2508 9.39941 19.5508C9.09947 19.0009 8.83727 18.4295 8.6123 17.8379C8.38734 17.2463 8.19979 16.6333 8.0498 16H5.09961ZM4.25 10C4.16669 10.3333 4.10417 10.6634 4.0625 10.9883C4.02089 11.313 4.00002 11.6504 4 12C4 12.3499 4.02086 12.6878 4.0625 13.0127C4.10415 13.3375 4.16673 13.6668 4.25 14H7.64941C7.59946 13.6669 7.56209 13.3375 7.53711 13.0127C7.51213 12.6878 7.5 12.3499 7.5 12C7.50001 11.6504 7.51215 11.313 7.53711 10.9883C7.56211 10.6634 7.59943 10.3333 7.64941 10H4.25ZM9.39941 4.4502C8.46627 4.75018 7.63699 5.20865 6.91211 5.8252C6.18723 6.44177 5.5829 7.16683 5.09961 8H8.0498C8.19976 7.36694 8.38741 6.75451 8.6123 6.16309C8.83728 5.57153 9.09947 5.0001 9.39941 4.4502ZM12 4.05078C11.5668 4.65065 11.1916 5.27593 10.875 5.92578C10.5585 6.57555 10.2996 7.26695 10.0996 8H13.8994C13.6995 7.26707 13.4415 6.57547 13.125 5.92578C12.8084 5.276 12.4332 4.6506 12 4.05078ZM14.5996 4.4502C14.8996 5.00013 15.1627 5.5715 15.3877 6.16309C15.6126 6.7545 15.8002 7.36695 15.9502 8H18.8994C18.4161 7.16691 17.8117 6.44172 17.0869 5.8252C16.362 5.2087 15.5328 4.75014 14.5996 4.4502Z" fill="black"/>
</svg>
