<svg width="24" height="24" viewBox="0 0 24 24" fill="none" xmlns="http://www.w3.org/2000/svg">
<path fill-rule="evenodd" clip-rule="evenodd" d="M18 13C19.3833 13 20.5621 13.4879 21.5371 14.4629C22.5121 15.4379 23 16.6167 23 18C23 19.3833 22.5121 20.5621 21.5371 21.5371C20.5621 22.5121 19.3833 23 18 23C16.6167 23 15.4379 22.5121 14.4629 21.5371C13.4879 20.5621 13 19.3833 13 18C13 16.6167 13.4879 15.4379 14.4629 14.4629C15.4379 13.4879 16.6167 13 18 13ZM17.5 18.2002L19.6504 20.3496L20.3496 19.6504L18.5 17.7998V15H17.5V18.2002Z" fill="black"/>
<path fill-rule="evenodd" clip-rule="evenodd" d="M12.0127 2C13.3876 2.00002 14.6794 2.26213 15.8877 2.78711C17.096 3.31211 18.1542 4.02917 19.0625 4.9375C19.9708 5.84583 20.6879 6.90398 21.2129 8.1123C21.7379 9.32058 22 10.6124 22 11.9873C22 12.0719 21.9952 12.1563 21.9932 12.2402C21.3689 11.7999 20.6912 11.4748 19.9668 11.2686C19.9583 11.1739 19.9494 11.0799 19.9375 10.9873C19.8958 10.6624 19.8333 10.3333 19.75 10H16.3496C16.3996 10.3333 16.4379 10.6624 16.4629 10.9873C16.4673 11.0441 16.4681 11.1016 16.4717 11.1592C15.7721 11.3089 15.1121 11.5641 14.498 11.9229C14.4963 11.6003 14.486 11.2884 14.4629 10.9873C14.4379 10.6624 14.3996 10.3333 14.3496 10H9.65039C9.6004 10.3333 9.56211 10.6624 9.53711 10.9873C9.51211 11.3123 9.5 11.65 9.5 12C9.5 12.35 9.51211 12.6877 9.53711 13.0127C9.56211 13.3376 9.6004 13.6667 9.65039 14H12.2461C11.8099 14.6167 11.4858 15.2853 11.2783 16H10.0996C10.2996 16.7333 10.5583 17.4252 10.875 18.0752C10.9171 18.1617 10.9626 18.2465 11.0068 18.332C11.065 19.6856 11.483 20.9196 12.2412 21.9941C12.1653 21.9958 12.0891 22 12.0127 22C10.6377 22 9.34163 21.7378 8.125 21.2129C6.90833 20.6879 5.84583 19.9708 4.9375 19.0625C4.02917 18.1542 3.31211 17.0917 2.78711 15.875C2.26215 14.6584 2 13.3623 2 11.9873C2.00002 10.6124 2.26213 9.32058 2.78711 8.1123C3.31211 6.90398 4.02917 5.84583 4.9375 4.9375C5.84583 4.02917 6.90833 3.31211 8.125 2.78711C9.34163 2.26215 10.6377 2 12.0127 2ZM5.09961 16C5.58287 16.8332 6.18725 17.5582 6.91211 18.1748C7.63711 18.7915 8.46706 19.2498 9.40039 19.5498C9.10044 18.9999 8.83728 18.4295 8.6123 17.8379C8.3873 17.2462 8.1998 16.6333 8.0498 16H5.09961ZM4.25 10C4.16668 10.3333 4.10417 10.6624 4.0625 10.9873C4.02083 11.3123 4 11.65 4 12C4 12.35 4.02083 12.6877 4.0625 13.0127C4.10417 13.3376 4.16668 13.6667 4.25 14H7.65039C7.6004 13.6667 7.56211 13.3376 7.53711 13.0127C7.51211 12.6877 7.5 12.35 7.5 12C7.5 11.65 7.51211 11.3123 7.53711 10.9873C7.56211 10.6624 7.6004 10.3333 7.65039 10H4.25ZM9.40039 4.4502C8.46706 4.7502 7.63711 5.20853 6.91211 5.8252C6.18725 6.4418 5.58287 7.16679 5.09961 8H8.0498C8.1998 7.36667 8.3873 6.75378 8.6123 6.16211C8.83728 5.57054 9.10044 5.00011 9.40039 4.4502ZM12 4.0498C11.5667 4.64976 11.1917 5.27486 10.875 5.9248C10.5583 6.5748 10.2996 7.26667 10.0996 8H13.9004C13.7004 7.26667 13.4417 6.5748 13.125 5.9248C12.8083 5.27486 12.4333 4.64976 12 4.0498ZM14.5996 4.4502C14.8996 5.00011 15.1627 5.57054 15.3877 6.16211C15.6127 6.75378 15.8002 7.36667 15.9502 8H18.9004C18.4171 7.16679 17.8127 6.4418 17.0879 5.8252C16.3629 5.20853 15.5329 4.7502 14.5996 4.4502Z" fill="black"/>
</svg>
